# This file uses centimeters as units for non-parametric coordinates.

mtllib floor.mtl
g default
v -0.500000 -0.000000 0.500000
v -0.400000 -0.000000 0.500000
v 0.400000 -0.000000 0.500000
v 0.500000 -0.000000 0.500000
v -0.500000 -0.000000 0.400000
v -0.400000 -0.000000 0.400000
v 0.000000 -0.000000 0.400000
v 0.400000 -0.000000 0.400000
v 0.500000 -0.000000 0.400000
v -0.500000 0.000000 -0.400000
v -0.400000 0.000000 -0.400000
v 0.000000 0.000000 -0.400000
v 0.400000 0.000000 -0.400000
v 0.500000 0.000000 -0.400000
v -0.500000 0.000000 -0.500000
v -0.400000 0.000000 -0.500000
v 0.400000 0.000000 -0.500000
v 0.500000 0.000000 -0.500000
vt 0.000000 0.000000
vt 0.100000 0.000000
vt 0.900000 0.000000
vt 1.000000 0.000000
vt 0.000000 0.100000
vt 0.100000 0.100000
vt 0.500000 0.100000
vt 0.900000 0.100000
vt 1.000000 0.100000
vt 0.000000 0.900000
vt 0.100000 0.900000
vt 0.500000 0.900000
vt 0.900000 0.900000
vt 1.000000 0.900000
vt 0.000000 1.000000
vt 0.100000 1.000000
vt 0.900000 1.000000
vt 1.000000 1.000000
vn 0.000000 1.000000 0.000000
vn 0.000000 1.000000 0.000000
vn 0.000000 1.000000 0.000000
vn 0.000000 1.000000 0.000000
vn 0.000000 1.000000 0.000000
vn 0.000000 1.000000 0.000000
vn 0.000000 1.000000 0.000000
vn 0.000000 1.000000 0.000000
vn 0.000000 1.000000 0.000000
vn 0.000000 1.000000 0.000000
vn 0.000000 1.000000 0.000000
vn 0.000000 1.000000 0.000000
vn 0.000000 1.000000 0.000000
vn 0.000000 1.000000 0.000000
vn 0.000000 1.000000 0.000000
vn 0.000000 1.000000 0.000000
vn 0.000000 1.000000 0.000000
vn 0.000000 1.000000 0.000000
s 1
g pPlane1
usemtl initialShadingGroup
f 1/1/1 2/2/2 6/6/3 5/5/4
f 6/6/3 2/2/2 3/3/5 8/8/6 7/7/7
f 3/3/5 4/4/8 9/9/9 8/8/6
f 6/6/3 11/11/10 10/10/11 5/5/4
f 11/11/10 6/6/3 7/7/7 12/12/12
f 12/12/12 7/7/7 8/8/6 13/13/13
f 9/9/9 14/14/14 13/13/13 8/8/6
f 10/10/11 11/11/10 16/16/15 15/15/16
f 17/17/17 16/16/15 11/11/10 12/12/12 13/13/13
f 13/13/13 14/14/14 18/18/18 17/17/17
